<svg id="aetna" xmlns="http://www.w3.org/2000/svg" viewBox="0 0 200 54.65"><defs><style>.cls-1{fill:#505050;}</style></defs><title>Untitled-4</title><path class="cls-1" d="M113.42 43.29l.58 9.28a36.56 36.56 0 0 1-8.93 1c-9.26 0-14.2-2.9-14.2-12.41 0-7.5.13-16.16.21-19.16h-4.8c.08-3 0-5.83 0-8 7.21-1.14 9.48-4.13 10.53-14h7.93c-.28 3-.52 9.87-.53 12.9h6.65V22h-9.11v14.24c0 6.29 2.43 8 6.76 8a13.29 13.29 0 0 0 4.91-.95zm44.22-9.07c0-3.53.07-8.72.07-8.72 0-10.55-4.63-15.5-17.71-15.5-7.35 0-12.59 1.16-20.79 1.16.46 7.41.48 17.5.44 23.16s-.19 16.57-.44 20.36h14.07c-.32-3.8-.6-13.95-.57-20.43 0-3.69.05-8.65.19-14.65a15.76 15.76 0 0 1 5.1-1.11c4.93 0 6.51 2.18 6.51 8.53 0 0 .07 4.92.07 7.27 0 5.77-.19 16.57-.44 20.36h14.07c-.33-3.8-.61-13.95-.57-20.43zm-94.05.85c-1.51 0-4.08 0-5.38-.11v.29c0 6 3.91 9.75 11.17 9.75a22.77 22.77 0 0 0 11.23-3l.5 9.33c-2.89 1.35-8.4 2.28-13.85 2.28-14.74 0-21.83-5.05-23.06-18.72-1.68-.08-4.22-.17-7.67-.19-.1 2.4-.18 4.52-.18 6.3A77.81 77.81 0 0 0 37 52.64c-8.08 0-14.34.9-20.7.9C4.23 53.53 0 48.54 0 40c0-8.2 6.79-12.65 21.49-12.65h2v-.85c0-5.84-1.79-8.27-7.7-8.27a26.19 26.19 0 0 0-11.52 3.08L3.77 12C7.16 10.62 12.72 9.67 19 9.67c12.89 0 17.73 4.24 17.73 15.92v1.9c3.15 0 5.44.07 7.55.2 1.3-11.52 7.07-18 21.5-18 11.92 0 17.39 5 17.39 12.55.01 8.76-6.63 12.83-19.58 12.83zM23.4 44.94c-.2-2.84-.13-6.92-.1-10.41h-1.74c-6.12 0-8.55 2.05-8.55 5.67s1.91 5.24 6.4 5.24a17.06 17.06 0 0 0 3.99-.5zM60.66 28c5.66 0 9-1.9 9-6 0-2.9-3-4.49-6-4.49-5.36 0-8.23 4.29-8.23 10.14v.21c1.57.09 3.87.14 5.23.14zM200 52.64c-8.08 0-14.34.9-20.7.9-12 0-16.27-5-16.27-13.49 0-8.24 6.79-12.69 21.49-12.69h2v-.86c0-5.84-1.79-8.27-7.69-8.27a26.16 26.16 0 0 0-11.55 3.08l-.47-9.31c3.39-1.38 8.95-2.33 15.25-2.33 12.89 0 17.73 4.24 17.73 15.92 0 6.25-.4 11.61-.4 15.38a78.28 78.28 0 0 0 .61 11.67zm-13.56-7.7c-.21-2.84-.13-6.92-.09-10.41h-1.75c-6.12 0-8.55 2.05-8.55 5.67s1.91 5.24 6.4 5.24a17.07 17.07 0 0 0 3.99-.5z"/></svg>