<svg xmlns="http://www.w3.org/2000/svg" xml:space="preserve" style="enable-background:new 0 0 185.49 36" viewBox="0 0 185.49 36"><path d="M84.56 23.6c8.67 0 13.12-2.72 13.12-8.57 0-5.05-3.67-8.41-11.64-8.41-9.66 0-13.52 4.31-14.4 12.03-1.41-.09-2.95-.12-5.05-.13 0-.42.01-.84.01-1.27 0-7.83-3.24-10.66-11.88-10.66-4.22 0-7.94.63-10.21 1.55l.34 6.25c1.98-1.05 4.93-2.06 7.73-2.06 3.95 0 5.15 1.63 5.15 5.54l-.01.58c-.27-.01-.97-.01-1.35-.01-9.84 0-14.4 2.98-14.4 8.5 0 5.69 2.83 9.04 10.9 9.04 4.25 0 8.45-.6 13.86-.6-.4-2.28-.41-5.56-.41-7.81 0-1.19.06-2.61.12-4.22 2.31.02 4.01.08 5.13.13C72.41 32.62 77.15 36 87.02 36c3.65 0 7.34-.62 9.27-1.52l-.34-6.25c-1.92 1.11-4.59 2.02-7.52 2.02-4.85 0-7.48-2.53-7.48-6.53v-.19c.87.04 2.6.07 3.61.07zm-29.59 6.92c-3 0-4.28-1-4.28-3.51 0-2.42 1.63-3.79 5.73-3.79.38 0 .84-.01 1.17.02-.02 2.34-.07 5.07.06 6.97-.71.19-1.76.31-2.68.31zm25.94-11.75v-.14c0-3.92 1.24-6.8 4.84-6.8 2.04 0 3.35 1.07 3.35 3.01 0 2.73-1.82 4-5.6 4-.91 0-1.88-.01-2.59-.07zm34.5 10.97c-2.9 0-3.75-1.15-3.75-5.36V13.51h5.72V7.47h-5.63c0-2.14.17-5.3.35-7.47h-5.3c-.7 5.28-2.23 8-7.05 8.8-.02 1.42.06 3.36 0 4.71h3.21c-.05 3-.14 8.48-.14 13.47 0 6.37 3.3 8.98 9.5 8.98 3.02 0 5.24-.44 5.98-.65l-.38-6.21c-.54.37-1.61.64-2.51.64zm60.34-12.49c0-7.83-3.24-10.66-11.87-10.66-4.23 0-7.94.63-10.21 1.55l.34 6.25c1.98-1.05 4.92-2.06 7.73-2.06 3.95 0 5.15 1.63 5.15 5.54v.58c-.28-.01-.97-.01-1.35-.01-9.85 0-14.4 2.98-14.4 8.5 0 5.69 2.83 9.04 10.9 9.04 4.25 0 8.45-.6 13.85-.6-.39-2.28-.4-5.56-.4-7.81-.01-2.55.26-6.13.26-10.32zm-11.62 13.27c-3.01 0-4.28-1-4.28-3.51 0-2.42 1.63-3.79 5.73-3.79.37 0 .83-.01 1.16.02-.01 2.34-.07 5.07.07 6.97-.71.19-1.77.31-2.68.31zm-16.6-8.16c0-2.36.05-5.5.05-5.5 0-7.07-3.1-10.24-11.87-10.24-4.92 0-8.43.86-13.92.86.31 4.96.32 11.09.3 14.89.02 3.86-.13 10.78-.3 13.01h9.42c-.22-2.24-.4-8.67-.38-13.01 0-2.47.03-5.46.13-9.47.94-.32 2.13-.56 3.42-.56 3.3 0 4.36 1.55 4.36 5.8 0 0 .05 2.67.05 4.24 0 3.86-.13 10.78-.3 13.01h9.42c-.22-2.26-.41-8.69-.38-13.03zM30.85 5.35a4.477 4.477 0 0 0-6.36.01l-5.22 5.23-5.23-5.23c-.89-.9-2.04-1.34-3.19-1.34s-2.3.44-3.18 1.32L1.31 11.7a4.5 4.5 0 0 0 .01 6.36L19.26 36 37.2 18.06c1.76-1.75 1.75-4.6 0-6.36l-6.35-6.35zm152.38 2.87c0-.95-.58-1.35-1.71-1.35h-1.78v4.68h.77v-2h.72l1.21 2h.87L182 9.49c.71-.07 1.23-.42 1.23-1.27zm-2.72.68V7.53h.93c.46 0 1.02.07 1.02.63 0 .68-.51.73-1.08.73h-.87zm.84-3.99c-2.24 0-4.16 1.69-4.16 4.23 0 2.41 1.73 4.23 4.16 4.23 2.22 0 4.14-1.68 4.14-4.23s-1.92-4.23-4.14-4.23zm0 7.72c-2.01 0-3.26-1.57-3.26-3.49 0-2.06 1.42-3.49 3.26-3.49 1.81 0 3.23 1.44 3.23 3.49 0 2.07-1.42 3.49-3.23 3.49z" style="fill:#7d3f98"/></svg>