<svg id="american-express" xmlns="http://www.w3.org/2000/svg" viewBox="0 0 200 199.54"><defs><style>.cls-1{fill:#505050;}.cls-2{fill:#fff;}</style></defs><title>Untitled-1</title><path class="cls-1" d="M198.82 0H0v199.54h198.82v-65.85a7.54 7.54 0 0 0 1.18-4.39 6.83 6.83 0 0 0-1.18-4.38"/><path class="cls-2" d="M17.92 86.34L14.1 77l-3.8 9.32m91.89-3.71a5.18 5.18 0 0 1-2.76.48h-6.8v-5.17h6.88a5.73 5.73 0 0 1 2.65.42 2.14 2.14 0 0 1 1.17 2.07 2.39 2.39 0 0 1-1.15 2.22zm48.43 3.71L146.75 77l-3.85 9.32h7.71zM60.34 96.43h-5.73V78.12l-8.1 18.31h-4.93l-8.13-18.32v18.32H22.09l-2.15-5.21H8.3l-2.17 5.21H.07l10-23.38h8.3l9.5 22.14V73.05H37l7.31 15.86L51 73.05h9.3v23.38zm22.83 0H64.5V73.05h18.67v4.87H70.09v4.21h12.77v4.79H70.09v4.68h13.08v4.84zm26.32-17.08a6.58 6.58 0 0 1-3.94 6.23 6.48 6.48 0 0 1 2.76 2c.79 1.16.93 2.2.93 4.29v4.59h-5.64v-2.95c0-1.41.13-3.43-.88-4.55-.82-.82-2.06-1-4.07-1h-6v8.5H87V73.05h12.9c2.86 0 5 .08 6.77 1.12a5.45 5.45 0 0 1 2.82 5.18zm8.94 17.08h-5.7V73.05h5.7v23.38zm66.15 0h-7.92l-10.59-17.55v17.55h-11.38l-2.17-5.21h-11.61l-2.11 5.21h-6.54c-2.72 0-6.16-.6-8.1-2.59s-3-4.67-3-8.93c0-3.47.61-6.64 3-9.14 1.81-1.87 4.64-2.73 8.49-2.73h5.41v5h-5.3c-2 0-3.19.3-4.3 1.38a7.72 7.72 0 0 0-1.61 5.3c0 2.5.5 4.31 1.54 5.49a5.39 5.39 0 0 0 3.89 1.21h2.51l7.88-18.39h8.37l9.46 22.11V73.05h8.5l9.82 16.28V73.05h5.72v23.38zM0 101h9.55l2.15-5.19h4.82l2.15 5.19h18.79v-4l1.68 4h9.75l1.68-4v4h46.68v-8.52h.9c.63 0 .82.08.82 1.12v7.4h24.13v-2a19.13 19.13 0 0 0 9 2h10.16l2.17-5.19h4.82l2.13 5.19h19.58v-4.91l3 4.93h15.69v-32.6H174v3.85l-2.17-3.85h-15.89v3.85l-2-3.85h-21.52a19.33 19.33 0 0 0-9.33 1.9v-1.9h-14.84v1.9c-1.63-1.44-3.85-1.9-6.31-1.9H47.68L44 76.84l-3.74-8.42H23.22v3.85l-1.88-3.85H6.77L0 83.92V101zM198.82 118.27h-10.18a3.87 3.87 0 0 0-2.26.42 1.82 1.82 0 0 0-.82 1.68 1.76 1.76 0 0 0 1.22 1.74 6.37 6.37 0 0 0 2.15.27l3 .08c3.06.08 5.1.6 6.34 1.88a3 3 0 0 1 .52.58m0 8.76c-1.36 2-4 3-7.58 3h-10.77v-5h10.75a3.18 3.18 0 0 0 2.26-.58 2.06 2.06 0 0 0 .66-1.53 1.92 1.92 0 0 0-.68-1.55 2.84 2.84 0 0 0-2-.52c-5.25-.18-11.79.16-11.79-7.24 0-3.39 2.15-7 8-7h11.13v-4.65h-10.29a11.65 11.65 0 0 0-7 1.91v-1.91h-15.3c-2.45 0-5.32.61-6.68 1.91v-1.91h-27.31v1.91c-2.17-1.57-5.84-1.91-7.54-1.91h-18v1.91c-1.72-1.67-5.54-1.91-7.88-1.91H78.6l-4.61 5-4.32-5H39.54v32.63h29.55l4.75-5.07 4.48 5.07h18.22v-7.68h1.79a19 19 0 0 0 7.78-1.15v8.81h15v-8.5h.72c.93 0 1 0 1 1v7.54h45.65c2.9 0 5.93-.74 7.61-2.09v2.09h14.48a19.4 19.4 0 0 0 8.19-1.5v-6.08zm-22.29-9.34a6.51 6.51 0 0 1 1.67 5c0 5-3.14 7.38-8.78 7.38h-10.85v-5h10.84a3.28 3.28 0 0 0 2.28-.58 2.07 2.07 0 0 0 .66-1.53 2 2 0 0 0-.68-1.55 2.94 2.94 0 0 0-2-.52c-5.23-.18-11.77.16-11.77-7.24 0-3.39 2.13-7 8-7h11.2v5h-10.25a3.78 3.78 0 0 0-2.24.42 2 2 0 0 0 .38 3.42 6.43 6.43 0 0 0 2.17.27l3 .08c3.05.05 5.13.57 6.4 1.85zm-50.4-1.44a5.35 5.35 0 0 1-2.76.48h-6.79v-5.25h6.88a5.51 5.51 0 0 1 2.67.42 2.23 2.23 0 0 1 1.16 2.1 2.52 2.52 0 0 1-1.16 2.25zm3.37 2.91a6.07 6.07 0 0 1 2.74 2c.79 1.14.9 2.21.93 4.27v4.64h-5.61v-2.93c0-1.41.14-3.49-.9-4.58-.82-.84-2.06-1-4.1-1h-6v8.54h-5.62v-23.46h12.9c2.83 0 4.89.12 6.72 1.1a5.48 5.48 0 0 1 2.87 5.19 6.55 6.55 0 0 1-3.92 6.23zm7.06-12.52h18.65v4.84H142.1v4.25h12.77v4.77H142.1v4.65h13.09v4.85h-18.65v-23.36zm-37.7 10.79h-7.22v-6h7.29c2 0 3.42.82 3.42 2.87s-1.32 3.13-3.49 3.13zM86 134.55L77.47 125l8.53-9.2v18.75zm-22.11-2.75H50.15v-4.65h12.27v-4.77H50.15v-4.25h14l6.11 6.81zm44.43-10.8c0 6.5-4.85 7.84-9.73 7.84h-7v7.84H80.75l-6.88-7.74-7.15 7.74H44.58v-23.39h22.48l6.88 7.71 7.06-7.71h17.9c4.43 0 9.42 1.23 9.42 7.71z"/></svg>