<svg id="google" width="200" height="67" xmlns="http://www.w3.org/2000/svg"><g fill="#505050" fill-rule="nonzero"><path d="M85.74 34.948c0 9.46-7.4 16.43-16.48 16.43-9.082 0-16.482-6.97-16.482-16.43 0-9.526 7.4-16.43 16.481-16.43 9.082 0 16.482 6.904 16.482 16.43zm-7.214 0c0-5.911-4.289-9.955-9.267-9.955s-9.266 4.044-9.266 9.955c0 5.852 4.288 9.956 9.266 9.956s9.267-4.111 9.267-9.956zM121.296 34.948c0 9.46-7.4 16.43-16.481 16.43-9.082 0-16.482-6.97-16.482-16.43 0-9.518 7.4-16.43 16.482-16.43 9.081 0 16.481 6.904 16.481 16.43zm-7.215 0c0-5.911-4.288-9.955-9.266-9.955s-9.267 4.044-9.267 9.955c0 5.852 4.289 9.956 9.267 9.956s9.266-4.111 9.266-9.956zM155.37 19.511v29.496c0 12.134-7.155 17.09-15.614 17.09-7.963 0-12.756-5.327-14.563-9.682l6.281-2.615c1.119 2.674 3.86 5.83 8.274 5.83 5.415 0 8.77-3.341 8.77-9.63v-2.363h-.251c-1.615 1.993-4.726 3.733-8.652 3.733-8.215 0-15.74-7.155-15.74-16.363 0-9.274 7.525-16.488 15.74-16.488 3.918 0 7.03 1.74 8.652 3.674h.252v-2.674h6.851v-.008zm-6.34 15.496c0-5.785-3.86-10.014-8.77-10.014-4.979 0-9.149 4.23-9.149 10.014 0 5.726 4.17 9.897 9.148 9.897 4.911 0 8.77-4.17 8.77-9.897zM166.667 2.222V50.37h-7.037V2.222zM194.089 40.356l5.6 3.733c-1.808 2.674-6.163 7.281-13.689 7.281-9.333 0-16.304-7.214-16.304-16.43 0-9.77 7.03-16.429 15.497-16.429 8.526 0 12.696 6.785 14.059 10.452L200 30.83l-21.963 9.096c1.682 3.296 4.296 4.978 7.963 4.978 3.674 0 6.222-1.808 8.089-4.548zm-17.237-5.912l14.681-6.096c-.807-2.052-3.237-3.481-6.096-3.481-3.667 0-8.77 3.237-8.585 9.577zM26.14 30.674v-6.97h23.49c.23 1.215.348 2.652.348 4.207 0 5.23-1.43 11.696-6.037 16.304-4.482 4.666-10.208 7.155-17.793 7.155C12.088 51.37.267 39.92.267 25.86.267 11.8 12.089.347 26.148.347c7.778 0 13.319 3.052 17.482 7.03l-4.919 4.918c-2.985-2.8-7.03-4.977-12.57-4.977-10.267 0-18.297 8.274-18.297 18.54 0 10.267 8.03 18.541 18.297 18.541 6.659 0 10.452-2.674 12.881-5.104 1.97-1.97 3.267-4.785 3.778-8.63l-16.66.008z"/></g></svg>
