<svg id="honeywell" xmlns="http://www.w3.org/2000/svg" viewBox="0 0 200 37.03"><defs><style>.cls-1{fill:#505050;}</style></defs><title>Untitled-5</title><path class="cls-1" d="M15.92 12.09H8.95V.07H0v28.87h8.88V15.77h7.04v13.32h8.89V0h-8.89v12.09zM44.17 7.92A14.35 14.35 0 0 0 39 7.18a11.72 11.72 0 0 0-2.32.21 10.85 10.85 0 0 0-7.28 4.28c-2.56 3.41-2.19 7.71-1.57 10.11a10.7 10.7 0 0 0 4 5.81c2 1.62 5.06 2.13 7.42 2.13a14.28 14.28 0 0 0 6.31-1.26 10.21 10.21 0 0 0 5-5.72 12.75 12.75 0 0 0-.67-10.09 10 10 0 0 0-5.72-4.73zm-1.75 14.57c-.11 1.36-.59 3.32-1.73 4.28s-2.55.57-3.42-.74-1.18-2.55-1.11-6.26-.16-6.29.56-7.77 1.41-2.15 2.07-2.27c1.4-.28 2.46.66 3.14 2.36a10.81 10.81 0 0 1 .52 3.51c.03 2.81.03 6.18-.03 6.89zM72.39 8a9.35 9.35 0 0 0-7.59.3 8.18 8.18 0 0 0-2.8 2.42V7.88h-8.35V29H62V13.8c-.16-.16 1-1.42 2.14-2a2.57 2.57 0 0 1 3 .3 3.22 3.22 0 0 1 .66 2.21V29H76V12.91A5.68 5.68 0 0 0 72.39 8zM101.43 22.91h-3.56c-.09 0 0 3.2-4.47 3.91-4.07.65-5.42-1.1-5.76-1.56a3.81 3.81 0 0 1-.49-1.26v-4.3h15a14.5 14.5 0 0 0-1.31-6.89C99 9.33 96 7.44 90.8 7.18s-9.42 2.39-11.07 5.72a13 13 0 0 0-.73 9.28 10.85 10.85 0 0 0 3.42 5c3.35 2.79 7.51 2.71 10.44 2.4a12.6 12.6 0 0 0 7-3.16 5.54 5.54 0 0 0 1.57-3.51zM87.32 12.83A4.72 4.72 0 0 1 88.94 10a2.7 2.7 0 0 1 3.24.24 4.33 4.33 0 0 1 1.16 2 11.08 11.08 0 0 1 .34 2.8v1.9h-6.54a29.08 29.08 0 0 1 .18-4.11zM166.41 7.18c-5.2-.27-9.42 2.39-11.07 5.72a13.08 13.08 0 0 0-.73 9.28 11 11 0 0 0 3.43 5c3.35 2.79 7.51 2.71 10.43 2.4a12.57 12.57 0 0 0 7-3.16 5.52 5.52 0 0 0 1.53-3.51h-3.56c-.1 0 0 3.22-4.48 3.93-4.06.65-5.42-1.1-5.76-1.56a3.57 3.57 0 0 1-.49-1.31v-4.3h15a14.35 14.35 0 0 0-1.3-6.89c-1.82-3.45-4.81-5.34-10-5.6zm2.86 9.73h-6.53a31.16 31.16 0 0 1 .18-4.07 4.75 4.75 0 0 1 1.63-2.84 2.7 2.7 0 0 1 3.23.24 4.31 4.31 0 0 1 1.17 2 11.27 11.27 0 0 1 .32 2.8v1.86z"/><path class="cls-1" d="M150.79 7.89l-3.19 11.66L144 7.89h-7.27l-3.23 11.84-3.65-11.81h-11.39l-4.14 10-3.87-10h-9.05l8.41 21.57a3.62 3.62 0 0 1-.18.82 8.5 8.5 0 0 1-1.78 3.23 2.28 2.28 0 0 1-2.13.79 3 3 0 0 0 .7-1 3.52 3.52 0 0 0-.3-2.67c-.46-1-1.76-1.73-3.75-1.34a3.4 3.4 0 0 0-2.67 3.93c.21 1.73 1.32 3.19 4.14 3.68A6.59 6.59 0 0 0 109.9 35c1.55-1.38 2.82-4.9 2.82-4.9l8.76-21.49L127.72 29h7l3.36-12.31L141.9 29h6.83l5.8-21.1h-3.75zM180.21.01h7.98V29h-7.98zM192.02.04H200v28.99h-7.98z"/></svg>
