<svg xmlns="http://www.w3.org/2000/svg" viewBox="0 0 215 48.1"><path d="M28.6 44.7V25.9h5.2c1.1 0 1.8.2 2.1.7.2.3.3 1.1.3 2.3h.9l.3-5.2h-.6c-.1.6-.8.9-2.1.9H19.5c-1.1 0-1.7-.3-1.9-.9H17l-.4 5.2h.8c.3-1.2.6-2 .9-2.3.4-.4 1.3-.6 2.6-.6h4.5v18.8c0 1-.3 1.6-.8 1.9-.4.2-1.1.3-2.3.3v.8h9.2V47c-1.1 0-1.9-.1-2.2-.3-.4-.4-.7-1-.7-2zm65.5-6.8c-1.2-.6-2-1.1-2.4-1.5-.7-.7-1.1-1.5-1.1-2.3 0-.9.3-1.6.8-2.2.5-.6 1.2-.9 2.1-.9 1.8 0 2.8.9 3.1 2.7h.8l-.4-3.4-1.1-.2c-.8-.1-1.4-.2-2-.2-1.6 0-2.9.4-3.8 1.3-1 .9-1.4 2.1-1.4 3.7 0 1.4.4 2.5 1.3 3.4.5.6 1.4 1.2 2.7 1.8 1.1.6 1.9 1.1 2.2 1.4.7.6 1 1.5 1 2.4 0 .9-.3 1.6-1 2.3-.6.6-1.4.9-2.3.9-.9 0-1.8-.4-2.5-1.2-.6-.7-1.1-1.5-1.3-2.5H88l.5 3.8c1.2.6 2.5.9 3.9.9 1.6 0 2.9-.4 4-1.3 1.2-.9 1.8-2.2 1.8-3.8 0-1.3-.4-2.4-1.3-3.3-.5-.5-1.5-1.1-2.8-1.8zm-13.3-6.7c1.2 0 2 .2 2.4.6.4.4.6 1.1.6 2.3v9.6l-2-2.1-6.5-7.1c-1.9-2-3-3.4-3.5-4.1h-4.5v.9c1.1 0 1.8.2 2.3.6.5.4.7 1.1.7 2.2V44c0 1.4-.2 2.2-.7 2.6-.3.3-1 .4-2 .4v.8h6.8V47c-1.3 0-2.2-.2-2.5-.8-.3-.4-.4-1.5-.4-3.3V34l12.8 14h.7V33.7c0-1 .1-1.6.4-2 .3-.3.9-.5 1.9-.5v-.9h-6.5v.9z"/><path d="m64.2 43.4-.2-.7-4.7-13h-.5c-.3.4-.8.8-1.5 1.1v.8c0 .4-.1 1.1-.5 2.1l-4.2 11.5c-.3.7-.5 1.1-.8 1.3-.3.2-.7.3-1.4.4-1 0-1.9-.5-2.8-1.5-.4-.4-1.3-1.7-2.6-3.6l-1.8-2.7c2.3-.8 3.4-2.2 3.4-4.3 0-1.5-.6-2.7-1.8-3.5-1.1-.7-2.4-1-4-1h-7.1v.9c.9 0 1.4.1 1.7.2.4.2.5.7.5 1.5v12.5c0 .7-.2 1.1-.6 1.3-.3.1-.8.2-1.6.2v.8h7.1v-.8c-.8 0-1.4-.1-1.6-.2-.4-.2-.6-.8-.6-1.5v-5.6h2.1c1.3 2 2.2 3.4 2.6 4.1 1.3 1.9 2.3 3.3 3 4h10v-.8h-.9c-.9 0-1.4-.4-1.4-1.1 0-.5.1-1 .2-1.5l1-3.1h5.6l1.5 4.5c0 .1.1.2.1.4 0 .5-.4.7-1.3.7h-.5v.8h6.6v-.8c-1 0-1.6-.3-1.9-.7-.1-.1-.5-1-1.1-2.7zm-24.4-4.8c-.2 0-.6 0-1.2-.1v-7.1c.4-.1.9-.2 1.3-.2 2.6 0 4 1.2 4 3.7 0 1.1-.4 2-1.2 2.7-.8.7-1.8 1-2.9 1zm15.9 1.5 2.2-6.9 2.5 6.9h-4.7zm56.8 3.3-.3-.7-4.7-13h-.5c-.3.4-.8.8-1.5 1.1v.8c0 .4-.1 1.1-.5 2.1l-4.2 11.5c-.3.7-.5 1.1-.8 1.3-.3.2-.8.3-1.6.4v.8h6.1v-.8h-.9c-.9 0-1.4-.4-1.4-1.1 0-.5.1-1 .2-1.5l1-3.1h5.6l1.5 4.5c0 .1.1.2.1.4 0 .5-.4.7-1.3.7h-.5v.8h6.6v-.8c-1 0-1.6-.3-1.9-.7 0-.1-.4-1-1-2.7zm-8.5-3.3 2.3-6.9 2.5 6.9H104zm47.8 5.9c-.6.4-1.5.6-2.8.6h-1.5c-1.2 0-1.9-.3-2.2-.8-.2-.3-.3-1.1-.3-2.5v-4.1h2.6c1.1 0 1.8.1 2.1.4.3.3.5.9.4 2h.8v-2.8l.1-2.9h-.7c-.1.7-.2 1.2-.4 1.5-.3.4-.8.7-1.6.7H145v-6.7h2.8c1.3 0 2.2.2 2.7.6.6.4.9 1.2 1.1 2.4l.7-.2v-3.8H140v.8c1 .1 1.7.2 1.9.4.3.3.5.8.5 1.8v10.9c0 1.1-.1 1.8-.3 2.1-.3.4-.9.5-2 .5v.9h13l1-4-.8-.2c-.4 1.2-.9 2-1.5 2.4zM137 44.7l-.3-11.7c0-.8.2-1.3.5-1.5.3-.2.8-.2 1.7-.2v-.8h-4.4L128 44l-6.6-13.7h-4.3v.8c.9 0 1.5.1 1.8.4.3.2.4.8.4 1.7l-.3 10.1c-.1 1.3-.2 2.2-.5 2.6-.4.6-1.2.9-2.4.9v.9c1.1-.1 2.2-.1 3.3-.1 1.1 0 2.2.1 3.3.1v-.8c-1.2 0-2-.2-2.3-.7-.2-.2-.2-.8-.2-1.7l.3-10.2 6.6 13.7h.6c.1-.5.5-1.4 1-2.6l5.6-11.7.1 11.2c0 .8-.1 1.3-.2 1.5-.3.5-1.1.7-2.4.6v.9c1.1-.1 2.3-.1 3.7-.1 1.4 0 2.8.1 4.2.1V47c-1.1 0-1.8-.1-2.1-.3-.4-.4-.5-1-.6-2zm76.5-14c0-.6-.4-.9-1.1-.9h-1.2V33h.5v-1.3h.5l.8 1.3h.5l-.9-1.4c.6-.1.9-.3.9-.9zm-1.8.5v-1h.6c.3 0 .7.1.7.5 0 .5-.4.5-.8.5h-.5zm-2.3 12.2-.2-.7-4.7-13h-.5c-.3.4-.8.8-1.5 1.1v.8c0 .4-.1 1.1-.5 2.1l-4.2 11.5c-.3.7-.5 1.1-.8 1.3-.3.2-.8.3-1.6.4v.8h6.1v-.8h-.9c-.9 0-1.4-.4-1.4-1.1 0-.5.1-1 .3-1.5l1-3.1h5.6l1.5 4.5c0 .1.1.2.1.4 0 .5-.4.7-1.3.7h-.5v.8h6.6v-.8c-1 0-1.6-.3-1.9-.7-.2-.1-.6-1-1.2-2.7zm-8.5-3.3 2.3-6.9 2.5 6.9h-4.8z"/><path d="M212.3 28.7c-1.5 0-2.7 1.1-2.7 2.7s1.3 2.7 2.7 2.7c1.5 0 2.7-1.1 2.7-2.7 0-1.5-1.2-2.7-2.7-2.7zm0 5c-1.2 0-2.2-1-2.2-2.3 0-1.3 1-2.2 2.2-2.2 1.2 0 2.2 1 2.2 2.2 0 1.3-1 2.3-2.2 2.3zm-41.2-2.6c.9 0 1.4.1 1.7.2.4.2.5.7.5 1.5v12.3c0 .8-.2 1.2-.6 1.4-.3.1-.8.2-1.6.2v.1c-.9-.1-1.8-.5-2.6-1.5-.4-.4-1.3-1.7-2.6-3.6l-1.8-2.7c2.3-.8 3.4-2.2 3.4-4.3 0-1.5-.6-2.7-1.8-3.5-1.1-.7-2.4-1-4-1h-7.1v.9c.9 0 1.4.1 1.7.2.4.2.5.7.5 1.5v12.5c0 .7-.2 1.1-.6 1.3-.3.1-.8.2-1.6.2v.8h7v-.8c-.8 0-1.4-.1-1.6-.2-.4-.2-.6-.8-.6-1.5v-5.6h2.1c1.3 2 2.2 3.4 2.6 4.1 1.3 1.9 2.3 3.3 3 4h4.1c1.5-.1 2.7-.1 3.4-.1 1.1 0 2.3.1 3.4.1v-1c-.8 0-1.3-.1-1.6-.2-.4-.2-.6-.7-.6-1.4V32.8c0-.8.2-1.2.5-1.5.3-.1.8-.2 1.7-.2v-.8h-7v.8zm-10.4 7.5c-.2 0-.6 0-1.2-.1v-7.1c.4-.1.9-.2 1.3-.2 2.6 0 4 1.2 4 3.7 0 1.1-.4 2-1.2 2.7-.8.7-1.8 1-2.9 1zm31.6 7.3c-.8.8-1.9 1.1-3.2 1.1-2.1 0-3.9-.9-5.3-2.6-1.3-1.6-2-3.6-2-5.8 0-2.2.6-4 1.8-5.5 1.3-1.5 3-2.3 5.1-2.3 3 0 4.7 1.3 5.2 4h.8l-.3-3.7c-2.3-.9-4.3-1.3-5.9-1.3-2.5 0-4.8.9-6.6 2.5-1.9 1.7-2.8 3.8-2.8 6.3 0 2.9.9 5.1 2.6 6.8 1.7 1.7 4.1 2.5 6.9 2.5.8 0 1.7-.1 2.9-.4 1.2-.3 2-.6 2.6-.9l.6-3.7-.7-.2c-.3 1.4-.8 2.4-1.7 3.2z"/><path fill="#e00" fill-rule="evenodd" d="M7 0 4.8 14.9H3.3l.4 7.3L0 47.7h13.6l-.1-.9H7v-1.3h6.4l-.1-.9H7v-1.3h6l-.1-.9H7v-1.3h5.7l-.1-.9H7V39h5.4l-.1-.9H7v-1.3h5.1l-.1-.9H7v-1.3h4.8l-.1-.9H7v-1.3h4.5l-.1-.9H7v-1.3h4.2l-.2-.9H7V28h3.9l-.1-.9H8.5l.7-12.2H7.5l.1 1.3H7V0zm0 17h.7l.1 1.3H7V17zm0 2.2h.8l.1 1.2H7v-1.2zm0 2.2h.9l.1 1.3H7v-1.3zm0 2.2h1l.1 1.3H7v-1.3zm0 2.2h1.2l.1 1.3H7v-1.3z" clip-rule="evenodd"/><path fill="#e00" fill-rule="evenodd" d="M9.4 25.2v.9h1.1l-.1-.9h-1m.2-2.2v.9h.7L10 23h-.4" clip-rule="evenodd"/></svg>