<svg id="transamerica" xmlns="http://www.w3.org/2000/svg" viewBox="0 0 200 46.64"><defs><style>.cls-1{fill:#505050;}</style></defs><title>Untitled-6</title><g id="Page-1"><g id="Style-guide---Logos"><g id="TA---Desktop"><g id="TA-Logo-Desktop"><path id="Fill-1-Copy" class="cls-1" d="M36.49 28.56h-.84c-.09-1.69 0-2.81-2.48-2.81h-4.71v17.48c0 2.19 1.18 2.22 2.83 2.25v.82c-1.49 0-2.83-.06-4.19-.06s-2.95 0-4.5.06v-.83c1.65 0 2.83-.06 2.83-2.25V25.74h-4.08c-2.79 0-2.92.78-3.45 2.81h-.8l.34-5h.62c.34.85 1.18.88 2 .88H34.1c1.12 0 1.89-.28 2-.88h.65l-.28 5"/><path id="Fill-2-Copy" class="cls-1" d="M38.31 38.55V44c0 1.65.88 1.66 2.11 1.69v.61c-1.12 0-2.11-.05-3.14-.05s-2.21 0-3.38.05v-.62c1.16.07 2.12-.23 2.12-1.57V32.22c0-1.64-.88-1.66-2.12-1.69v-.61h6.66c4.4 0 5.37 2.48 5.37 4.15a4.3 4.3 0 0 1-3.3 4c2.12 3.12 3.23 5 4.23 6.12a3.37 3.37 0 0 0 2.63 1.48v.61c-.58 0-1.16-.05-1.75-.05s-1.33 0-2 .05a54.87 54.87 0 0 1-5.35-7.74h-2.08zm1.39-7.88a7.59 7.59 0 0 0-1.39.14v6.87a6.44 6.44 0 0 0 1.23.12c2.86 0 4-1.9 4-3.59 0-2-1.07-3.54-3.81-3.54z"/><path id="Fill-3" class="cls-1" d="M60.2 41.62A23.46 23.46 0 0 0 61.52 45a2.19 2.19 0 0 0 1.79.64v.61c-.88 0-1.79-.05-2.67-.05-1.14 0-2.26 0-3.4.05v-.57h.41c.58 0 1.28-.12 1.28-.78a5.82 5.82 0 0 0-.35-1.36l-1.16-3.4H52l-.51 1.65a11.28 11.28 0 0 0-.63 2.79c0 1.1.77 1.05 1.58 1.1h.54v.61c-.91 0-1.84-.05-2.74-.05s-1.89 0-2.82.05v-.61c1.42-.16 1.67-.35 2.26-1.66.37-.85.65-1.76 1-2.63l3-8.37a7.17 7.17 0 0 0 .49-2.11 2.44 2.44 0 0 0 0-.61 2.85 2.85 0 0 0 1.35-1h.4l4.28 12.32zm-7.91-2.44h4.79l-2.49-6.89-2.26 6.89z"/><path id="Fill-4" class="cls-1" d="M79.42 46.5h-.54L66.71 33v8.75c0 3.24.26 3.89 2.77 3.89v.61c-1 0-2.07-.05-3.09-.05s-2.07 0-3.1.05v-.57c1.42 0 2.49 0 2.49-3v-9.41c0-2-.86-2.74-2.86-2.74v-.61h4.05c1 1.43 3.12 3.56 5.77 6.51 2 2.21 4.17 4.53 5.75 6.27v-9.33c0-2.16-.49-2.82-2.81-2.84v-.61h5.93v.61c-1.42 0-2.19.12-2.19 2.42V46.5"/><path id="Fill-5-Copy" class="cls-1" d="M82.56 42.42h.53c.39 1.76 1.7 3.47 3.63 3.47a3.05 3.05 0 0 0 3.19-3.12c0-4.36-6.88-3.07-6.88-8.6 0-3 2.14-4.59 5-4.59a19.44 19.44 0 0 1 2.84.35l.37 3h-.57a2.83 2.83 0 0 0-3-2.6 2.74 2.74 0 0 0-2.79 3c0 4.36 7.17 3.16 7.17 8.55 0 3.05-2.72 4.76-5.47 4.76a8.44 8.44 0 0 1-3.56-.8l-.47-3.42"/><path id="Fill-6" class="cls-1" d="M105.2 41.62a23.45 23.45 0 0 0 1.32 3.38 2.19 2.19 0 0 0 1.79.64v.61c-.89 0-1.79-.05-2.68-.05-1.14 0-2.26 0-3.4.05v-.57h.42c.58 0 1.28-.12 1.28-.78a5.79 5.79 0 0 0-.35-1.36l-1.16-3.4H97l-.52 1.65a11.5 11.5 0 0 0-.63 2.79c0 1.1.77 1.05 1.58 1.1h.54v.61c-.91 0-1.84-.05-2.75-.05s-1.89 0-2.82.05v-.61c1.42-.16 1.68-.35 2.26-1.66.37-.85.65-1.76 1-2.63l3-8.37a7.13 7.13 0 0 0 .49-2.11 2.44 2.44 0 0 0 0-.61 2.89 2.89 0 0 0 1.35-1h.39l4.45 12.36zm-7.92-2.44h4.8l-2.49-6.89-2.26 6.89z"/><path id="Fill-7" class="cls-1" d="M119.29 43.08c2.09-4.39 4.35-8.7 6.28-13.15h3.91v.61a2.89 2.89 0 0 0-1.63.28 1.63 1.63 0 0 0-.44 1.41c0 3.7.21 7.64.3 11.18 0 1.76.21 2.28 2.53 2.28v.61c-1.28 0-2.56-.05-3.84-.05s-2.26 0-3.4.05v-.62a4.17 4.17 0 0 0 1.79-.21 1.6 1.6 0 0 0 .61-1.59l-.1-11.19-5.49 11.49c-.25.56-.72 1.72-.91 2.32h-.46c-2-4.48-4.21-8.87-6.42-13.3l-.19 8.49v1.47c0 1.15.12 1.78.49 2.11a2.79 2.79 0 0 0 1.88.4v.61c-1 0-1.93-.05-2.89-.05s-2.07 0-3.09.05v-.6c1.65 0 2.67-.4 2.76-3.54s.26-6.4.26-9.62a2.06 2.06 0 0 0-.45-1.62 2.42 2.42 0 0 0-1.6-.38v-.6h3.95l6.26 13.15"/><path id="Fill-8" class="cls-1" d="M136.07 37.33h3.07a1.82 1.82 0 0 0 2-2h.47c0 .52-.09 1.78-.09 2.63s.12 1.85.09 2.6h-.47c0-2.25-.74-2.25-2.53-2.25h-2.49v4c0 2.6.09 3.26 2.4 3.26h1.44c2.28-.12 3.31-.42 4.21-2.94l.56.1a32.44 32.44 0 0 0-1 3.59c-2.32 0-4.65-.05-7-.05-1.72 0-3.44 0-5.16.05v-.64c2 0 2.21-.38 2.21-2.65V32.62c0-1.92-.37-2-2.21-2.09v-.61h11.41v3.5l-.47.12c-.35-2.21-1.4-2.87-3.72-2.87h-2.72v6.66"/><path id="Fill-9" class="cls-1" d="M150.17 38.55V44c0 1.65.88 1.66 2.11 1.69v.61c-1.11 0-2.11-.05-3.14-.05s-2.21 0-3.37.05v-.62c1.16.07 2.12-.23 2.12-1.57V32.22c0-1.64-.88-1.66-2.12-1.69v-.61h6.66c4.4 0 5.38 2.48 5.38 4.15a4.31 4.31 0 0 1-3.31 4c2.12 3.12 3.23 5 4.24 6.12a3.36 3.36 0 0 0 2.63 1.48v.61c-.59 0-1.17-.05-1.75-.05s-1.33 0-2 .05a55.11 55.11 0 0 1-5.35-7.74h-2.11zm1.39-7.88a7.66 7.66 0 0 0-1.39.14v6.87a6.5 6.5 0 0 0 1.24.12c2.86 0 4-1.9 4-3.59 0-2-1.07-3.54-3.82-3.54z"/><path id="Fill-10" class="cls-1" d="M163.4 32.22c0-1.64-.88-1.66-2.11-1.69v-.61h6.52v.61c-1.24 0-2.12.05-2.12 1.69V44c0 1.65.88 1.66 2.12 1.69v.61c-1.12 0-2.12-.05-3.14-.05s-2.21 0-3.37.05v-.62c1.23 0 2.11 0 2.11-1.69V32.22"/><path id="Fill-11" class="cls-1" d="M183.9 34.17h-.58c-.44-2.75-2.37-3.85-5-3.85s-6.56 1.81-6.56 7.43c0 4.73 3.35 8.14 6.94 8.14a4.74 4.74 0 0 0 4.67-4.06l.56.17-.54 3.42a13 13 0 0 1-5.14 1.24c-5.45 0-8.88-3.54-8.88-8.82 0-4.81 4.26-8.25 8.81-8.25a16.59 16.59 0 0 1 5.49 1.24l.23 3.36"/><path id="Fill-12" class="cls-1" d="M196.88 41.62a23.76 23.76 0 0 0 1.33 3.38 2.18 2.18 0 0 0 1.79.64v.61c-.88 0-1.79-.05-2.67-.05-1.14 0-2.26 0-3.4.05v-.57h.42c.59 0 1.28-.12 1.28-.78a5.81 5.81 0 0 0-.35-1.36l-1.16-3.4h-5.47l-.51 1.65a11.2 11.2 0 0 0-.63 2.79c0 1.1.77 1.05 1.58 1.1h.53v.61c-.9 0-1.84-.05-2.74-.05s-1.89 0-2.82.05v-.61c1.42-.16 1.68-.35 2.26-1.66.37-.85.65-1.76 1-2.63l3-8.37a7.21 7.21 0 0 0 .49-2.11 2.51 2.51 0 0 0 0-.61 2.88 2.88 0 0 0 1.35-1h.39l4.44 12.36zM189 39.18h4.79l-2.49-6.89-2.3 6.89z"/><path id="Fill-13" class="cls-1" d="M197.42 33.4a1.95 1.95 0 1 1 1.93-1.95 1.94 1.94 0 0 1-1.93 1.95zm0-3.59a1.64 1.64 0 1 0 1.58 1.65 1.63 1.63 0 0 0-1.62-1.64z"/><path id="Fill-14" class="cls-1" d="M197.5 31.36a.44.44 0 0 0 .27-.07.28.28 0 0 0 .1-.26.27.27 0 0 0-.14-.27.42.42 0 0 0-.2 0h-.6v.64h.57zm-.82-.86h.84a.88.88 0 0 1 .35.06.45.45 0 0 1 .26.44.49.49 0 0 1-.07.28.48.48 0 0 1-.19.17.38.38 0 0 1 .16.12.44.44 0 0 1 .06.24v.25a.85.85 0 0 0 0 .16.16.16 0 0 0 .08.12h-.31v-.06V31.85a.27.27 0 0 0-.13-.25.57.57 0 0 0-.22 0h-.56v.81h-.25V30.5z"/><path id="Fill-15" class="cls-1" d="M13 45.36H6.7v-1.22h6.11l-.13-.91h-6V42h5.84l-.13-.9H6.7v-1.21h5.53l-.14-.89H6.7v-1.2h5.21l-.14-.9H6.7v-1.22h4.94l-.13-.91H6.7v-1.22h4.63l-.13-.91H6.7v-1.22H11l-.13-.9H6.7v-1.23h4l-.14-.91H6.7v-1.22h3.73l-.14-.91H8.15l.66-11.85H7.23l.07 1.22h-.6V0L4.61 14.4H3.19l.39 7.12L0 46.27h13.12l-.12-.91zM6.7 22.91h1l.07 1.22H6.7v-1.22zm1-.9h-1v-1.27h.88L7.65 22zm-1-2.17v-1.19h.77l.07 1.18H6.7zm0 6.43V25h1.12l.07 1.22H6.7zm.66-9.74l.07 1.22H6.7v-1.23h.65z"/><path id="Fill-16" class="cls-1" d="M10 24.13h-.88v.91h1l-.12-.91"/><path id="Fill-17" class="cls-1" d="M9.71 22h-.45v.9h.58l-.13-.9"/></g></g></g></g></svg>