<svg id="visa" xmlns="http://www.w3.org/2000/svg" viewBox="0 0 200 64.74"><defs><style>.cls-1{fill:#505050;}</style></defs><title>Untitled-2</title><path class="cls-1" d="M130.84 0c-16 0-27.27 8.52-27.37 20.7-.1 9 8 14.05 14.18 17.05 6.32 3.07 8.44 5 8.41 7.78-.06 4.2-5.06 6.12-9.7 6.12a32.46 32.46 0 0 1-15.23-3.28l-2.1-1-2.27 14c3.79 1.75 10.78 3.26 18.05 3.34 17 0 28.06-8.42 28.19-21.42.07-7.16-4.26-12.57-13.61-17-5.65-2.91-9.14-4.83-9.08-7.78 0-2.6 2.93-5.39 9.28-5.39a28.31 28.31 0 0 1 12.12 2.41l1.44.72 2.2-13.6A40 40 0 0 0 130.84 0zm-50.3 1.09L70.41 63.81H86.6L96.74 1.09h-16.2zm-23.72.06L41 43.9l-1.69-8.69C35.34 24.56 26.79 13.39 16.84 8.86l14.5 54.89h17.14L74 1.16H56.83zm117.55 0c-3.88 0-6.79 1.11-8.5 5.21l-24 57.47h17s2.78-7.74 3.41-9.43h20.73c.5 2.19 2 9.39 2 9.39h15L186.89 1.16h-12.52zm1.14 16.91l1.08 5.41s3.11 15 3.76 18.1h-13.43C168.26 38 173.37 24 173.37 24c-.1.17 1.33-3.63 2.15-6z"/><path class="cls-1" d="M26.27 1.12H.15L0 2.2c20.31 5.19 33.71 17.95 39.28 33L33.61 6.4c-1-4-3.82-5.14-7.34-5.28"/></svg>