<svg id="willis-towers-watson" xmlns="http://www.w3.org/2000/svg" viewBox="0 0 200 229.08"><defs><style>.cls-1{fill:#505050;}</style></defs><title>Untitled-3</title><g id="qqXhiX"><path class="cls-1" d="M27.36 197.41c-.41 2.51-.8 5-1.37 7.45q-2.59 11.28-5.17 22.57a.66.66 0 0 1-.79.63H13.3a.84.84 0 0 1-1-.73Q9.23 216.66 6.11 206L0 185.11v-.2a.57.57 0 0 1 .5-.09h7.86a.56.56 0 0 1 .71.46c1.9 7.41 4 14.78 5.74 22.22.62 2.59 1 5.22 1.56 7.83a.32.32 0 0 0 .17.23c.21-1 .41-1.93.62-2.9l5.7-26.07a3.39 3.39 0 0 1 .46-1.68c.41-.35 1.19-.1 1.81-.1H31a.74.74 0 0 1 .9.72q3.18 14.77 6.4 29.52a1.19 1.19 0 0 0 .23.53c.2-.87.42-1.74.61-2.62C40.8 205 43 197.15 45 189.25c.33-1.33.68-2.66 1-4a.43.43 0 0 1 .46-.44h8.33c-.42 1.48-.82 2.9-1.22 4.33q-5.45 19.09-10.88 38.19a.8.8 0 0 1-.93.72h-6.93a.56.56 0 0 1-.68-.51c-1.82-8.11-3.67-16.22-5.49-24.34-.39-1.73-.69-3.48-1-5.22a.7.7 0 0 0-.3-.57zM16.53 105.7l.61-2.83q3-13.55 5.89-27.11a.88.88 0 0 1 1.07-.84c2.33.05 4.67 0 7 0a.65.65 0 0 1 .77.64q3.26 15.05 6.56 30.1c.21 0 .17-.21.2-.34 2.07-9.95 4.81-19.73 7.22-29.6a.89.89 0 0 1 1.07-.81h7.13c.58 0 .7.11.53.7Q49.25 94.23 44 112.84c-.46 1.62-.94 3.23-1.38 4.86a.54.54 0 0 1-.64.48h-7.2a.53.53 0 0 1-.62-.5c-2-9.08-4.21-18.1-6.08-27.2a28.94 28.94 0 0 0-.67-2.92c-.25 1.48-.49 3-.77 4.45-.79 4.14-1.83 8.23-2.75 12.34l-3 13.23a.62.62 0 0 1-.73.61h-6.93a.69.69 0 0 1-.8-.62q-5.22-18-10.47-36c-.59-2-1.16-4-1.77-6.07-.19-.45-.19-.58.31-.58h7.93a.53.53 0 0 1 .64.48c1.91 7.43 4 14.82 5.76 22.28.62 2.56 1 5.18 1.54 7.77 0 .08 0 .16.06.23h.11zM75.24 162.31c1.39-6.7 3.36-13 5-19.46a.84.84 0 0 1 1-.77h5.6a.72.72 0 0 1 .85.66c1.74 6.4 3.72 12.73 5.22 19.19a2.88 2.88 0 0 0 .15.32c.17-.72.32-1.3.46-1.88 1.4-6 3.2-11.86 4.73-17.8a.58.58 0 0 1 .71-.48h6.73c.69 0 .69.2.52.75q-3.37 11.21-6.7 22.43c-.73 2.44-1.47 4.88-2.18 7.33a.59.59 0 0 1-.68.52h-6.47a.62.62 0 0 1-.72-.56q-2.52-9.56-5.09-19.16a2.16 2.16 0 0 0-.34-.77l-.84 3.06-4.66 16.86a.62.62 0 0 1-.71.56h-6.4a.59.59 0 0 1-.68-.52q-4.36-15-8.76-29.94c-.12-.4-.13-.58.39-.57h7a.71.71 0 0 1 .85.65c1.58 6.32 3.36 12.6 4.82 19 .04.11.09.27.2.58zM200 22.23v21.46c0 .64-.2.74-.78.74h-13.4c-.57 0-.68-.16-.68-.7v-43c0-.55.09-.75.71-.74h13.46c.57 0 .68.16.68.7q.01 10.78.01 21.54zM2.8 22.14V.82C2.78.11 3 0 3.63 0H17c.57 0 .69.17.69.71v43c0 .54-.07.75-.71.75q-6.73-.05-13.46 0c-.56 0-.69-.15-.69-.7q-.01-10.82-.03-21.62zM140.86 22.22V.76c0-.61.16-.76.77-.76h13.33c.53 0 .71.1.71.68v43.06c0 .56-.15.69-.7.69h-13.46c-.56 0-.64-.2-.64-.68q0-10.75-.01-21.53zM47.71 0H61.5c.35 0 .5.1.45.45A2.75 2.75 0 0 0 62 .8v42.79c0 .71-.19.86-.88.86H47.79c-.25 0-.7.2-.58-.4a.92.92 0 0 0 .12-.76V19.91v-19c-.02-.36-.1-.75.38-.91zM108.78 44v.25l-.26.13H94.46c-.56 0-.47-.29-.47-.63V23.96Q94 12.36 94 .69c0-.55.12-.7.69-.69h13.86a1.45 1.45 0 0 1 .13.91v42.25a1 1 0 0 0 .1.84zm-14.38-.16h.07V.46h-.07v43.38zM126.89 159.94h-10.53c-.54 0-.73.09-.65.69.51 3.49 2.62 6 5.72 6.79a8.62 8.62 0 0 0 4.09 0 5.33 5.33 0 0 0 3.76-3.11.64.64 0 0 1 .67-.48h7.13c.5 0 .53.16.41.59a11.7 11.7 0 0 1-7.09 8.22c-5.93 2.39-11.72 2-17-1.81a14.15 14.15 0 0 1-5.47-9 18.52 18.52 0 0 1 1.52-12.57 14.75 14.75 0 0 1 14.65-8 13.67 13.67 0 0 1 9.2 4.11 16.63 16.63 0 0 1 4 7.5 30.37 30.37 0 0 1 .85 6.45c0 .53-.17.61-.64.61-3.51.01-7.09.01-10.62.01zm-4.28-5.71h6.26c.53 0 .63-.17.57-.65a6.51 6.51 0 0 0-5.31-5.87 6.63 6.63 0 0 0-7.49 3.62 12.39 12.39 0 0 0-.77 2.26c-.13.47-.08.66.49.65 2.08-.03 4.16-.01 6.25-.01zM72.24 224.55a8.25 8.25 0 0 1-4.89 3.72 16.27 16.27 0 0 1-6.67.35 11.79 11.79 0 0 1-3.61-1.09 8.21 8.21 0 0 1-4.72-6.53 8.88 8.88 0 0 1 1.81-7.45 10.6 10.6 0 0 1 4.56-2.9 36.25 36.25 0 0 1 7.4-1.59 18.86 18.86 0 0 0 4.15-.91 2.79 2.79 0 0 0 .77-4.89 4.89 4.89 0 0 0-2.49-1 10.52 10.52 0 0 0-4.29.2 4 4 0 0 0-3.16 3.46.54.54 0 0 1-.65.59h-6.2c-.51 0-.59-.2-.54-.64a9.67 9.67 0 0 1 4.83-7.63 14.06 14.06 0 0 1 6.19-1.88 20.82 20.82 0 0 1 9.07.91c3.8 1.4 5.7 4.25 6.19 8.17a23.28 23.28 0 0 1 .13 2.93v15.39a10.8 10.8 0 0 0 .26 2.44 4.52 4.52 0 0 0 .44 1.11c.12.22.52.36.32.65a.81.81 0 0 1-.69.08h-6.6a.87.87 0 0 1-1-.68 19.52 19.52 0 0 1-.61-2.81zm.12-12a15.14 15.14 0 0 1-3.15 1.14c-1.27.3-2.54.6-3.81.93a12.13 12.13 0 0 0-3.46 1.32 3.71 3.71 0 0 0-1.64 4 3.3 3.3 0 0 0 2.83 2.87 9.23 9.23 0 0 0 4.73-.2 5.87 5.87 0 0 0 4.49-5.33c.05-1.55 0-3.1 0-4.77zM60.67 157.6c-.1 5.9-2.24 10.79-7.37 14-6.74 4.24-17.88 3.24-22.81-5.33-3.82-6.64-2.85-16.53 3.78-21.69a16.33 16.33 0 0 1 11.57-3.32A15.41 15.41 0 0 1 56 145.74a16 16 0 0 1 4.69 10.93c-.01.33-.02.62-.02.93zm-8.34 0a14.19 14.19 0 0 0-.9-5.22c-1.19-3-3.3-4.76-6.57-4.91a6.77 6.77 0 0 0-7 4.2 14.15 14.15 0 0 0 0 11.88 6.69 6.69 0 0 0 6.27 4.11 6.92 6.92 0 0 0 6.42-3.19 12.37 12.37 0 0 0 1.78-6.84zM167.57 212.49c-.14 5.6-2.07 10.28-6.7 13.6a16 16 0 0 1-10.4 2.86 15.34 15.34 0 0 1-12.18-6.26 16.6 16.6 0 0 1-3.11-11.57 15.49 15.49 0 0 1 6.82-12.23 16.34 16.34 0 0 1 10.71-2.65 15.54 15.54 0 0 1 9.34 3.76 15.82 15.82 0 0 1 5.37 10.74c.09.6.11 1.2.15 1.75zm-8.41.46a15.5 15.5 0 0 0-.8-5.37 7.25 7.25 0 0 0-6.73-5.16 7 7 0 0 0-7.14 4.63 14.48 14.48 0 0 0 0 11.1 6.83 6.83 0 0 0 6.63 4.49 7 7 0 0 0 6.88-4.14 12.84 12.84 0 0 0 1.16-5.5zM180.05 201.24a24.68 24.68 0 0 1 1.61-2 10.17 10.17 0 0 1 8.56-3c5.58.4 9 4.56 9.66 9.62a16.26 16.26 0 0 1 .11 2v19.6c0 .49-.1.64-.61.64h-7c-.53 0-.66-.15-.66-.67v-18.26a5.81 5.81 0 0 0-1.45-4.24 5.88 5.88 0 0 0-8.31.33 7.41 7.41 0 0 0-1.87 5.13v17c0 .54-.1.72-.68.71h-7.07c-.45 0-.55-.13-.55-.56v-29.93c0-.39.08-.55.51-.55h7.07c.41 0 .52.12.51.53v3a.85.85 0 0 0 .17.65zm-7.7-3.59h-.07v29.69h.07v-29.68z"/><path class="cls-1" d="M22.91 137.24c-.57 0-.71.22-.71.79v34.32c0 .6-.14.78-.76.77q-3.66-.06-7.33 0c-.57 0-.74-.12-.74-.72v-34.32c0-.64-.15-.82-.8-.81H1.04c-.29 0-.75.16-.62-.45a.69.69 0 0 0 .15-.68v-5.46c0-.54.16-.67.68-.67h33a.57.57 0 0 1 .71.71v5.59c0 .63-.21.79-.81.79H23.56a.75.75 0 0 0-.65.14zM119.69 108.13h3.27a.48.48 0 0 1 .59.44c.52 2.69 2.39 4.29 5.37 4.62a9.12 9.12 0 0 0 5-.62 3.2 3.2 0 0 0 1.89-2.11 2.56 2.56 0 0 0-1.08-2.92 11 11 0 0 0-4.14-1.38 57.3 57.3 0 0 1-7.58-1.74 9.36 9.36 0 0 1-4.88-3.3c-2.76-3.95-1.42-10.08 2.78-12.72a14.53 14.53 0 0 1 6.88-2 17.61 17.61 0 0 1 8.85 1.36 10.28 10.28 0 0 1 6 8.37c.06.38 0 .56-.46.55h-6.47a.46.46 0 0 1-.56-.46 4.54 4.54 0 0 0-4.51-4 9.77 9.77 0 0 0-4.47.43 3.46 3.46 0 0 0-1.78 1.34 2.39 2.39 0 0 0 .87 3.59 13.15 13.15 0 0 0 4 1.18 47.44 47.44 0 0 1 8.33 2c2.81 1.09 4.89 2.89 5.57 6 1.12 5.06-1.21 9.35-6.08 11.26a19.24 19.24 0 0 1-8.38.98 17.22 17.22 0 0 1-6.92-1.73 10.66 10.66 0 0 1-5.93-8.54c-.07-.5.05-.66.58-.64 1.08.07 2.17.04 3.26.04zM108.39 218h3.33a.44.44 0 0 1 .54.42 5.42 5.42 0 0 0 4.89 4.57 10.12 10.12 0 0 0 4.87-.3 4.37 4.37 0 0 0 1.56-.87 2.76 2.76 0 0 0-.47-4.59 14.49 14.49 0 0 0-4.51-1.32A43.66 43.66 0 0 1 111 214c-3.18-1.24-5.24-3.39-5.51-6.92-.28-3.74.92-6.82 4.21-8.88a14.47 14.47 0 0 1 7-2 17.52 17.52 0 0 1 8.72 1.38 10.21 10.21 0 0 1 6 8.32c.07.46 0 .57-.5.57h-6.33a.52.52 0 0 1-.66-.45c-.53-2.46-1.64-3.55-4.12-4a9.21 9.21 0 0 0-4.8.35 3.13 3.13 0 0 0-2.2 2.29 2.16 2.16 0 0 0 1 2.51 9.92 9.92 0 0 0 3.51 1.18 67.56 67.56 0 0 1 8.24 1.86A10.4 10.4 0 0 1 130 213a8.7 8.7 0 0 1 2 7.21 8.55 8.55 0 0 1-5.41 7.22 19 19 0 0 1-16.07-.23c-3.63-1.68-5.53-4.73-6-8.69 0-.39 0-.51.44-.5 1.17-.01 2.3-.01 3.43-.01zM166.54 163.07h3.33a.44.44 0 0 1 .53.4 5.66 5.66 0 0 0 5.62 4.68 10.46 10.46 0 0 0 4-.36 4.85 4.85 0 0 0 1.64-.86 2.76 2.76 0 0 0-.35-4.6 12 12 0 0 0-3.85-1.21 51.66 51.66 0 0 1-8-1.88c-2.39-.89-4.43-2.23-5.33-4.76-1.31-3.7-.67-9.27 4.85-11.79a17.93 17.93 0 0 1 8.78-1.38 14.23 14.23 0 0 1 7.34 2.29 10.33 10.33 0 0 1 4.41 7.58c0 .28-.05.35-.31.35h-6.8a.34.34 0 0 1-.39-.35c-.43-3-2.63-4-5.06-4.12a9.29 9.29 0 0 0-3.87.45 3.16 3.16 0 0 0-2.24 2.49 2.1 2.1 0 0 0 .85 2.17 7.55 7.55 0 0 0 3.08 1.19c2.84.62 5.73 1 8.5 1.88a10.21 10.21 0 0 1 5.46 3.49c3.08 4.2 1.57 10.66-3.12 13.35A15.2 15.2 0 0 1 179 174a19.35 19.35 0 0 1-10.32-1.68 10.54 10.54 0 0 1-6-8.57c-.06-.5 0-.66.54-.64 1.15-.01 2.24-.04 3.32-.04zM87.79 212.34v-9.2c0-.52-.13-.7-.66-.67h-3.07c-.37 0-.56-.05-.56-.5v-4.47a.4.4 0 0 1 .5-.5h3.2c.48 0 .59-.16.59-.61v-8.46c0-.5.12-.63.63-.63h6.86c.52 0 .62.15.61.64v8.4c0 .52.13.68.67.67h4.07c.45 0 .62.09.61.58v4.33c0 .45-.14.56-.56.55h-4.2a.46.46 0 0 0-.57.56v16.13c0 1.79 1 2.75 2.92 2.83a16.85 16.85 0 0 0 2.06-.06c.37 0 .52 0 .52.44v5.2c0 .22 0 .45-.32.46-2.48 0-5 .33-7.44-.15a6.6 6.6 0 0 1-5.79-6.68v-.47-8.4zM73 96.55V75.62c0-.54.11-.71.68-.7h7c.51 0 .61.15.61.63v42.06c0 .42-.09.57-.54.57h-7.13c-.52 0-.61-.16-.61-.64q.05-10.49-.01-20.99zM88 118v-.66-41.62c0-.64.15-.82.8-.8 2.44.05 4.88 0 7.32 0v42a1 1 0 0 0 .12.83v.25l-.13.13h-.26a.81.81 0 0 0-.69-.12zM130.93 11.16v10.4c0 .51-.12.67-.65.67h-13.46a.57.57 0 0 1-.71-.7V.67c0-.54.15-.66.67-.65h13.46c.55 0 .7.14.69.69-.01 3.47 0 6.96 0 10.45zM86.65 11.12v10.47c0 .49-.1.64-.62.64h-13.6c-.5 0-.63-.13-.63-.63V.6a.47.47 0 0 1 .6-.6h13.66c.46 0 .59.11.59.58-.01 3.52 0 7.03 0 10.54zM25 44.27V44a.61.61 0 0 0 .15-.61q0-10.49.05-21a.18.18 0 0 0-.17-.17.78.78 0 0 1 .63-.09h13.45c.56 0 .69.16.69.71v20.85c0 .6-.16.72-.74.72H25.28a.33.33 0 0 0-.28-.14zM177.78 22.29v21.44c0 .54-.11.71-.68.71h-13.72a.81.81 0 0 1-.26-.84V23.16a2.27 2.27 0 0 1 .14-.91h14.18c.06.22.19.15.34.04zM143.06 142.14c2.46 0 4.91 0 7.37-.05.4 0 .41.22.41.51v4.37a.8.8 0 0 0 .46-.51 10.16 10.16 0 0 1 3.22-3.65 5.13 5.13 0 0 1 2.72-.92c.84.06 1.68-.06 2.52.08a.66.66 0 0 1 .64.79v5.25a.81.81 0 0 0 .12.69c.13.48-.12.49-.5.46a8.87 8.87 0 0 0-4.61.72 7.32 7.32 0 0 0-4.07 5.8 12.33 12.33 0 0 0-.17 2.19v14.59c0 .52-.12.68-.66.67h-7.46q.01-15.52.01-30.99zM111.18 102.7v14.85c0 .49-.11.64-.62.64h-7.06c-.47 0-.59-.14-.59-.6V87.75a.48.48 0 0 1 .6-.59h7.13c.47 0 .54.15.54.57v15zM66 87.2c.2-.08.36-.06.38.19s0 .31 0 .47v29.66a.61.61 0 0 1-.11.61 1 1 0 0 0-.7-.1h-6.59a.57.57 0 0 1-.71-.71v-29.3c0-.51.12-.69.67-.69h6.39a.67.67 0 0 0 .67-.13zM107 82.36h-3.46c-.45 0-.62-.1-.61-.58v-6.32c0-.4.1-.54.52-.54h7.25a.39.39 0 0 1 .49.48v6.46c0 .43-.14.51-.53.51-1.22-.03-2.44-.01-3.66-.01zM58.26 75h7.64a.37.37 0 0 1 .46.45v6.52c0 .28 0 .47-.38.46h-7.77a1.1 1.1 0 0 0 .08-.71q-.03-3.45-.03-6.72z"/><path class="cls-1" d="M22.91 137.24a.75.75 0 0 1 .74-.15h10.59c.6 0 .82-.15.81-.79v-5.59a.57.57 0 0 0-.71-.71h-33c-.52 0-.69.13-.68.67v5.46a.69.69 0 0 1-.15.68v-6.53c0-.38.16-.44.48-.43h33.52c.6 0 .78.15.76.76v6.13c0 .31 0 .55-.43.54-4.02-.02-7.97-.03-11.93-.04zM66 87.2a.67.67 0 0 1-.68.15h-6.39c-.54 0-.67.17-.67.69v29.3a.57.57 0 0 0 .71.71h6.59a1 1 0 0 1 .7.1c-2.6.11-5.19 0-7.79.05-.24 0-.38-.07-.36-.34s0-.27 0-.4V87.93c0-.62.16-.77.77-.76 2.34.03 4.72.02 7.12.03zM163.32 22.21a2.27 2.27 0 0 0-.14.91v20.44a.81.81 0 0 0 .26.84c-.51.13-.46-.21-.46-.53V32v-9.2c.02-.21-.22-.65.34-.59zM47.71 0c-.48.13-.4.51-.4.86V43.24a.92.92 0 0 1-.12.76v-.6V.66c-.04-.37-.11-.79.52-.66zM108.78 44a1 1 0 0 1-.13-.83V.92a1.45 1.45 0 0 0-.14-.92c.11 0 .24 0 .27.1a2.48 2.48 0 0 1 0 .46v43c.02.2 0 .33 0 .44zM96.24 117.76a1 1 0 0 1-.12-.83v-42c.27.1.16.33.16.5v42a2.62 2.62 0 0 1-.04.33zM143.06 142.14v30.94c-.3-.12-.15-.38-.15-.57v-29.79c-.01-.2-.15-.46.15-.58zM25.06 22.27a.18.18 0 0 1 .17.17q0 10.49-.05 21A.61.61 0 0 1 25 44v-.6-20.5a1.32 1.32 0 0 1 .06-.63zM160.51 148.69a.81.81 0 0 1-.12-.69v-5.25a.66.66 0 0 0-.64-.79c-.84-.14-1.68 0-2.52-.08a7.25 7.25 0 0 1 3 0 .37.37 0 0 1 .35.45q-.06 3.17-.07 6.36zM88 118h7.12a.81.81 0 0 1 .69.12H88.3c-.09.05-.24.08-.3-.12zM58.26 75v6.61a1.1 1.1 0 0 1-.08.71 25.31 25.31 0 0 1-.06-3.17v-3.58c-.02-.23-.17-.5.14-.57zM177.78 22.29c-.15.11-.28.18-.33-.08.12-.02.26-.1.33.08zM108.51 44.4l.26-.13c-.01.2-.14.15-.26.13zM25 44.27a.33.33 0 0 1 .29.13c-.1.01-.29.08-.29-.13zM164 22.21h-.12a.09.09 0 0 1 .12 0zM96.11 118.14l.13-.13a.1.1 0 0 1-.13.13zM94.4 43.84V.46h.07v43.41zM172.36 197.66v29.68h-.07v-29.7h.07z"/></g></svg>